<?xml version="1.0" standalone="no"?>
<!DOCTYPE svg PUBLIC "-//W3C//DTD SVG 20010904//EN"
 "http://www.w3.org/TR/2001/REC-SVG-20010904/DTD/svg10.dtd">
<svg version="1.0" xmlns="http://www.w3.org/2000/svg"
 width="640.000000pt" height="480.000000pt" viewBox="0 0 640.000000 480.000000"
 preserveAspectRatio="xMidYMid meet">
<metadata>
Created by potrace 1.12, written by Peter Selinger 2001-2015
</metadata>
<g transform="translate(0.000000,480.000000) scale(0.100000,-0.100000)"
fill="#000000" stroke="none">
<path d="M1820 2415 l0 -1045 379 0 c383 0 528 8 656 37 234 52 426 188 534
378 182 317 201 891 42 1219 -77 157 -186 264 -356 346 -196 95 -311 110 -847
110 l-408 0 0 -1045z m568 785 c-102 -21 -174 -52 -240 -103 l-48 -37 0 80 0
80 188 -1 187 0 -87 -19z m306 -215 c122 -26 203 -94 228 -192 l10 -43 125 0
125 0 -7 53 c-4 28 -18 81 -31 117 -15 43 -18 58 -8 45 84 -109 137 -393 120
-637 -5 -60 -11 -108 -15 -108 -4 0 -13 18 -20 40 -19 63 -109 153 -199 198
-76 37 -142 57 -431 126 -265 64 -351 132 -327 261 23 118 223 184 430 140z
m-527 -508 c62 -41 177 -80 343 -116 369 -80 470 -141 470 -282 0 -150 -149
-230 -404 -216 -205 11 -327 91 -356 233 l-11 54 -55 0 -54 0 0 186 c0 145 3
184 13 178 6 -5 31 -21 54 -37z m80 -770 c35 -15 95 -35 135 -44 79 -17 279
-22 393 -11 84 9 61 -4 -49 -26 -57 -12 -141 -16 -351 -16 l-275 0 0 95 0 95
43 -33 c23 -17 70 -45 104 -60z"/>
</g>
</svg>
